# xmcd CD database file
#
# Track frame offsets:
#	150
#	24762
#	50875
#	72750
#	97925
#	135375
#	162975
#	193525
#	262012
#
# Disc length: 3787 seconds
#
# Revision: 0
# Processed by: cddbd v1.5.1PL2 Copyright (c) Steve Scherf et al.
# Submitted via: CDex 1.51
#
DISCID=730ec909
DTITLE=Dream of America - 9 MODERN JAZZ
DYEAR=1990
DGENRE=Jazz
TTITLE0=TAKE FIVE - DAVE BRUBACK
TTITLE1=MILESTONES - MILES DAVIS
TTITLE2=WHAT'S NEW - J.J.JOHNSON
TTITLE3=LEFT ALONE - MAL WALDRON
TTITLE4=SOMEDAY MY PRINCE WILL COME - DAVE BRUBCK
TTITLE5=SOFTLY, AS IN A MORNING SUNRISE - HARRISON/BRANCHARD
TTITLE6=GREEN DOLPHIN STREET - BILL EVANS
TTITLE7=MY FUNNY VALENTINE - MILES DAVIS
TTITLE8=DJANGO - WYNTON MARSALIS
EXTD=YEAR: 1990
EXTT0=
EXTT1=
EXTT2=
EXTT3=
EXTT4=
EXTT5=
EXTT6=
EXTT7=
EXTT8=
PLAYORDER=
